<svg width="800" height="600" viewBox="0 0 800 600" fill="none" xmlns="http://www.w3.org/2000/svg">
  <rect width="800" height="600" rx="48" fill="#0F172A"/>
  <circle cx="220" cy="180" r="72" fill="#38BDF8" fill-opacity="0.18"/>
  <circle cx="560" cy="140" r="112" fill="#A78BFA" fill-opacity="0.18"/>
  <path d="M250 360C250 314.771 286.771 278 332 278H338.386C355.866 224.993 405.778 186 465 186C537.902 186 597 245.098 597 318C640.066 323.294 674 360.166 674 405C674 453.601 634.601 493 586 493H332C286.771 493 250 456.229 250 411V360Z" fill="#E2E8F0" fill-opacity="0.12" stroke="#E2E8F0" stroke-opacity="0.28" stroke-width="10"/>
  <path d="M352 374L399 327L446 374" stroke="#F8FAFC" stroke-width="18" stroke-linecap="round" stroke-linejoin="round"/>
  <path d="M399 327V430" stroke="#F8FAFC" stroke-width="18" stroke-linecap="round"/>
  <circle cx="516" cy="287" r="18" fill="#38BDF8"/>
  <circle cx="565" cy="287" r="18" fill="#A78BFA"/>
</svg>
